<svg width="15" height="16" viewBox="0 0 15 16" fill="none" xmlns="http://www.w3.org/2000/svg">
<path d="M3.3128 12.0355C3.12705 11.8497 3.11158 11.5582 3.26636 11.3548L3.3128 11.3017L10.6506 3.96385C10.8532 3.76122 11.1818 3.76122 11.3844 3.96385C11.5701 4.14959 11.5856 4.44112 11.4308 4.6445L11.3844 4.69763L4.04658 12.0355C3.84395 12.2381 3.51542 12.2381 3.3128 12.0355Z" fill="#0D6EFD"/>
<path d="M5.1147 4.86351C4.82814 4.86413 4.59534 4.63232 4.59472 4.34576C4.59416 4.08526 4.78568 3.86918 5.03581 3.83158L5.11247 3.82579L11.0189 3.81307C11.2802 3.8125 11.4967 4.00513 11.5334 4.2561L11.5389 4.333L11.5267 10.2399C11.5261 10.5265 11.2933 10.7583 11.0067 10.7577C10.7462 10.7572 10.531 10.5648 10.4944 10.3145L10.489 10.2378L10.4998 4.85189L5.1147 4.86351Z" fill="#0D6EFD"/>
</svg>
