<svg width="20" height="20" viewBox="0 0 20 20" fill="none" xmlns="http://www.w3.org/2000/svg">
<path d="M4.16321 7.10162C4.16321 5.941 5.10421 5 6.26483 5C7.42545 5 8.36645 5.941 8.36645 7.10162C8.36645 8.26223 7.42545 9.20323 6.26483 9.20323C5.10421 9.20323 4.16321 8.26223 4.16321 7.10162ZM7.58902 11.3833C7.17053 11.5126 6.7259 11.5821 6.2651 11.5821C4.23355 11.5821 2.51808 10.2299 1.9689 8.37676C1.94303 8.28999 1.83389 8.26224 1.76976 8.3261L0.0701952 10.0257C-0.00310137 10.099 -0.021156 10.2116 0.0262711 10.304C1.18958 12.5657 3.54666 14.1128 6.2651 14.1128C7.44674 14.1128 8.55993 13.8204 9.5365 13.3041C8.772 12.7861 8.11287 12.1346 7.58902 11.3833Z" fill="#A7AAAD"/>
<path d="M11.6335 7.10162C11.6335 5.941 12.5745 5 13.7352 5C14.8958 5 15.8368 5.941 15.8368 7.10162C15.8368 8.26223 14.8958 9.20323 13.7352 9.20323C12.5745 9.20323 11.6335 8.26223 11.6335 7.10162ZM18.2302 8.3261C18.1661 8.26197 18.057 8.28972 18.0311 8.37676C17.4819 10.2302 15.7664 11.5821 13.7349 11.5821C11.7033 11.5821 9.98787 10.2299 9.43869 8.37676C9.41282 8.28999 9.30368 8.26224 9.23955 8.3261L7.53998 10.0257C7.46669 10.099 7.44863 10.2116 7.49606 10.304C8.65937 12.5657 11.0164 14.1128 13.7349 14.1128C16.4533 14.1128 18.8104 12.5657 19.9737 10.304C20.0211 10.2116 20.0031 10.0992 19.9298 10.0257L18.2302 8.3261Z" fill="#A7AAAD"/>
</svg>
